<svg width="4" height="6" viewBox="0 0 4 6" fill="none" xmlns="http://www.w3.org/2000/svg">
<path d="M0.167939 5.85202C0.0559794 5.75336 0 5.6278 0 5.47534C0 5.32287 0.0559794 5.19731 0.167939 5.09865L2.54962 3L0.167939 0.901345C0.0559794 0.802691 0 0.67713 0 0.524664C0 0.372197 0.0559794 0.246637 0.167939 0.147982C0.279898 0.0493271 0.422392 0 0.595419 0C0.768447 0 0.910942 0.0493271 1.0229 0.147982L3.83206 2.62332C3.89313 2.67713 3.93649 2.73543 3.96214 2.79821C3.98738 2.86099 4 2.92825 4 3C4 3.07175 3.98738 3.13901 3.96214 3.20179C3.93649 3.26457 3.89313 3.32287 3.83206 3.37668L1.0229 5.85202C0.910942 5.95067 0.768447 6 0.595419 6C0.422392 6 0.279898 5.95067 0.167939 5.85202Z" fill="#8D8D8D"/>
</svg>
