<svg width="8" height="5" viewBox="0 0 8 5" fill="none" xmlns="http://www.w3.org/2000/svg">
<path d="M4.30573 0.299975L6.90573 2.89998C7.22239 3.21664 7.29306 3.57898 7.11773 3.98698C6.94306 4.39564 6.63073 4.59998 6.18073 4.59998L1.03073 4.59998C0.580726 4.59998 0.268392 4.39564 0.0937257 3.98698C-0.0816076 3.57898 -0.010941 3.21664 0.305726 2.89998L2.90573 0.299975C3.00573 0.199975 3.11406 0.124976 3.23073 0.0749756C3.34739 0.0249756 3.47239 -2.51224e-05 3.60573 -2.51108e-05C3.73906 -2.50991e-05 3.86406 0.0249757 3.98073 0.0749757C4.09739 0.124976 4.20573 0.199975 4.30573 0.299975Z" fill="#B7B7B7"/>
</svg>
