<svg width="7" height="7" viewBox="0 0 7 7" fill="none" xmlns="http://www.w3.org/2000/svg">
<path d="M3.5 4.5462L1.28066 6.77174C1.14035 6.91123 0.961783 6.98098 0.744948 6.98098C0.528113 6.98098 0.349543 6.91123 0.209239 6.77174C0.0697464 6.63225 0 6.45471 0 6.23913C0 6.02355 0.0697464 5.84601 0.209239 5.70652L2.43478 3.48098L0.209239 1.2807C0.0697464 1.14038 0 0.961803 0 0.744967C0 0.52812 0.0697464 0.349543 0.209239 0.209239C0.348732 0.0697464 0.526268 0 0.741848 0C0.957427 0 1.13496 0.0697464 1.27446 0.209239L3.5 2.43478L5.70028 0.209239C5.8406 0.0697464 6.01918 0 6.23601 0C6.45286 0 6.63143 0.0697464 6.77174 0.209239C6.92391 0.361413 7 0.54212 7 0.751359C7 0.960598 6.92391 1.13496 6.77174 1.27446L4.5462 3.48098L6.77174 5.70032C6.91123 5.84062 6.98098 6.01919 6.98098 6.23603C6.98098 6.45286 6.91123 6.63143 6.77174 6.77174C6.61956 6.92391 6.43886 7 6.22962 7C6.02038 7 5.84601 6.92391 5.70652 6.77174L3.5 4.5462Z" fill="#B7B7B7"/>
</svg>
