<svg width="18" height="18" viewBox="0 0 18 18" fill="none" xmlns="http://www.w3.org/2000/svg">
<path d="M9 1.5C13.1422 1.5 16.5 4.85775 16.5 9C16.5 13.1422 13.1422 16.5 9 16.5H3C2.60218 16.5 2.22064 16.342 1.93934 16.0607C1.65804 15.7794 1.5 15.3978 1.5 15V9C1.5 4.85775 4.85775 1.5 9 1.5ZM9 3C7.4087 3 5.88258 3.63214 4.75736 4.75736C3.63214 5.88258 3 7.4087 3 9V15H9C10.5913 15 12.1174 14.3679 13.2426 13.2426C14.3679 12.1174 15 10.5913 15 9C15 7.4087 14.3679 5.88258 13.2426 4.75736C12.1174 3.63214 10.5913 3 9 3ZM9 10.5C9.19116 10.5002 9.37502 10.5734 9.51403 10.7046C9.65303 10.8359 9.73668 11.0152 9.74788 11.206C9.75908 11.3969 9.69699 11.5848 9.5743 11.7314C9.45161 11.878 9.27757 11.9722 9.08775 11.9947L9 12H6.75C6.55884 11.9998 6.37498 11.9266 6.23597 11.7954C6.09697 11.6641 6.01332 11.4848 6.00212 11.294C5.99092 11.1031 6.05301 10.9152 6.1757 10.7686C6.29839 10.622 6.47243 10.5278 6.66225 10.5052L6.75 10.5H9ZM11.25 7.5C11.4489 7.5 11.6397 7.57902 11.7803 7.71967C11.921 7.86032 12 8.05109 12 8.25C12 8.44891 11.921 8.63968 11.7803 8.78033C11.6397 8.92098 11.4489 9 11.25 9H6.75C6.55109 9 6.36032 8.92098 6.21967 8.78033C6.07902 8.63968 6 8.44891 6 8.25C6 8.05109 6.07902 7.86032 6.21967 7.71967C6.36032 7.57902 6.55109 7.5 6.75 7.5H11.25Z" fill="#6F6F6F"/>
</svg>
