<svg width="17" height="17" viewBox="0 0 17 17" fill="none" xmlns="http://www.w3.org/2000/svg">
<path d="M16.5 8.18218C16.5 12.4071 12.9364 15.8644 8.5 15.8644C4.06359 15.8644 0.5 12.4071 0.5 8.18218C0.5 3.95722 4.06359 0.5 8.5 0.5C12.9364 0.5 16.5 3.95722 16.5 8.18218Z" fill="white" stroke="#D5D5D5"/>
<path d="M5.125 9.62609C4.81563 9.62609 4.55087 9.53175 4.33075 9.34308C4.11025 9.15473 4 8.92819 4 8.66348C4 8.39876 4.11025 8.17206 4.33075 7.98339C4.55087 7.79504 4.81563 7.70087 5.125 7.70087C5.43438 7.70087 5.69913 7.79504 5.91925 7.98339C6.13975 8.17206 6.25 8.39876 6.25 8.66348C6.25 8.92819 6.13975 9.15473 5.91925 9.34308C5.69913 9.53175 5.43438 9.62609 5.125 9.62609ZM8.5 9.62609C8.19063 9.62609 7.92588 9.53175 7.70575 9.34308C7.48525 9.15473 7.375 8.92819 7.375 8.66348C7.375 8.39876 7.48525 8.17206 7.70575 7.98339C7.92588 7.79504 8.19063 7.70087 8.5 7.70087C8.80937 7.70087 9.07431 7.79504 9.29481 7.98339C9.51494 8.17206 9.625 8.39876 9.625 8.66348C9.625 8.92819 9.51494 9.15473 9.29481 9.34308C9.07431 9.53175 8.80937 9.62609 8.5 9.62609ZM11.875 9.62609C11.5656 9.62609 11.3007 9.53175 11.0802 9.34308C10.8601 9.15473 10.75 8.92819 10.75 8.66348C10.75 8.39876 10.8601 8.17206 11.0802 7.98339C11.3007 7.79504 11.5656 7.70087 11.875 7.70087C12.1844 7.70087 12.4493 7.79504 12.6698 7.98339C12.8899 8.17206 13 8.39876 13 8.66348C13 8.92819 12.8899 9.15473 12.6698 9.34308C12.4493 9.53175 12.1844 9.62609 11.875 9.62609Z" fill="#7A7A7A"/>
</svg>
