<svg width="17" height="17" viewBox="0 0 17 17" fill="none" xmlns="http://www.w3.org/2000/svg">
<g clip-path="url(#clip0_2_495)">
<path d="M8.57079 13.1396L8.49996 13.2104L8.42204 13.1396C5.05746 10.0867 2.83329 8.06792 2.83329 6.02083C2.83329 4.60417 3.89579 3.54167 5.31246 3.54167C6.40329 3.54167 7.46579 4.25 7.84121 5.21333H9.15871C9.53413 4.25 10.5966 3.54167 11.6875 3.54167C13.1041 3.54167 14.1666 4.60417 14.1666 6.02083C14.1666 8.06792 11.9425 10.0867 8.57079 13.1396ZM11.6875 2.125C10.455 2.125 9.27204 2.69875 8.49996 3.59833C7.72788 2.69875 6.54496 2.125 5.31246 2.125C3.13079 2.125 1.41663 3.83208 1.41663 6.02083C1.41663 8.69125 3.82496 10.88 7.47288 14.1879L8.49996 15.1229L9.52704 14.1879C13.175 10.88 15.5833 8.69125 15.5833 6.02083C15.5833 3.83208 13.8691 2.125 11.6875 2.125Z" fill="#545454"/>
</g>
<defs>
<clipPath id="clip0_2_495">
<rect width="17" height="17" fill="white"/>
</clipPath>
</defs>
</svg>
